<?xml version="1.0" encoding="UTF-8"?>
<svg width="78px" height="56px" viewBox="0 0 78 56" version="1.1" xmlns="http://www.w3.org/2000/svg" xmlns:xlink="http://www.w3.org/1999/xlink">
    <g id="Main" stroke="none" stroke-width="1" fill="none" fill-rule="evenodd">
        <g id="Group-Copy">
            <g id="Group-12-Copy">
                <path d="M6,7.10542736e-14 L72,7.1942452e-14 C75.3137085,7.13337336e-14 78,2.6862915 78,6 L78,44.2488479 C78,47.5625564 75.3137085,50.2488479 72,50.2488479 L31.5781818,50.2488479 C30.7764607,50.2488479 30.0346985,50.6734313 29.6286806,51.3647388 L27.5833406,54.8472428 C27.1773227,55.5385503 26.4355604,55.9631336 25.6338393,55.9631336 L6,55.9631336 C2.6862915,55.9631336 3.1493667e-14,53.2768421 2.66731082e-14,49.9631336 L2.31203945e-14,6 C2.27145822e-14,2.6862915 2.6862915,7.1662992e-14 6,7.10542736e-14 Z" id="Rectangle-30" fill="#FF5252"></path>
                <g id="Group-2" transform="translate(65.000000, 7.000000)" fill="#D44141" opacity="0.5">
                    <polygon id="Rectangle-14" points="0.161290323 0.0704410797 6.48387097 0.0704410797 6.48387097 5.24884793 0.161290323 5.24884793"></polygon>
                    <polygon id="Rectangle-14" points="0.161290323 10.0704411 6.48387097 10.0704411 6.48387097 15.2488479 0.161290323 15.2488479"></polygon>
                    <polygon id="Rectangle-14" points="0.161290323 20.0704411 6.48387097 20.0704411 6.48387097 25.2488479 0.161290323 25.2488479"></polygon>
                    <polygon id="Rectangle-14" points="0.161290323 30.0704411 6.48387097 30.0704411 6.48387097 35.2488479 0.161290323 35.2488479"></polygon>
                </g>
            </g>
        </g>
    </g>
</svg>