<svg width="24" height="24" viewBox="0 0 24 24" xmlns="http://www.w3.org/2000/svg"> <g fill="none" fill-rule="evenodd"> <path d="M0 0h24v24H0z"></path> <path d="M13 12.104l1.25 1.25c.194.195.51.195.706 0 .195-.196.195-.512 0-.708l-2.12-2.12c-.1-.1-.227-.147-.355-.147-.127 0-.255.047-.352.145l-2.122 2.12c-.195.197-.195.513 0 .71.196.194.512.194.708 0L12 12.066V19.5c0 .276.224.5.5.5s.5-.224.5-.5v-7.396z" fill="#FFF"></path> <path d="M15.61 17.433h1.774c2.006 0 3.616-1.572 3.616-3.49 0-1.945-1.484-3.515-3.365-3.615l-.06-.003v-.06c.02-1.43-.5-2.79-1.505-3.762C15.12 5.518 13.84 5 12.437 5c-1.294 0-2.574.53-3.51 1.505-.768.728-1.237 1.68-1.375 2.753l-.007.048C5.49 9.578 4 11.274 4 13.31c0 2.272 1.85 4.123 4.123 4.123h1.275" stroke="#FFF" stroke-linecap="round"></path> </g> </svg>