<?xml version="1.0" encoding="UTF-8"?>
<svg width="51px" height="32px" viewBox="0 0 51 32" version="1.1" xmlns="http://www.w3.org/2000/svg" xmlns:xlink="http://www.w3.org/1999/xlink">
    <!-- Generator: Sketch 43.2 (39069) - http://www.bohemiancoding.com/sketch -->
    <title>Shape</title>
    <desc>Created with Sketch.</desc>
    <defs></defs>
    <g id="Title" stroke="none" stroke-width="1" fill="none" fill-rule="evenodd">
        <g transform="translate(-1191.000000, -480.000000)" id="Group-11" fill-rule="nonzero" fill="#FFFFFF">
            <g transform="translate(129.000000, 470.000000)">
                <g id="Group-8" transform="translate(265.000000, 8.000000)">
                    <g id="Cloud_000000" transform="translate(797.400000, 2.000000)">
                        <path d="M29,0.53125 C23.784882,0.53125 19.372258,3.650957 17.25,8.0625 C16.120721,7.285822 14.812373,6.71875 13.34375,6.71875 C9.6186448,6.71875 6.6461092,9.6699 6.4375,13.34375 C2.7116509,14.688873 0,18.164595 0,22.34375 C0,27.672129 4.3269841,32 9.65625,32 L41.09375,32 C45.998956,32 50,27.99808 50,23.09375 C50,18.543696 46.508006,14.927126 42.09375,14.40625 C42.10944,14.165177 42.15625,13.937552 42.15625,13.6875 C42.15625,6.437113 36.251406,0.53125 29,0.53125 Z M29,2.53125 C35.170594,2.53125 40.15625,7.517887 40.15625,13.6875 C40.15625,14.142598 40.12028,14.594543 40.0625,15.0625 L39.90625,16.1875 L41.03125,16.1875 L41.09375,16.1875 C44.918391,16.1875 48,19.27008 48,23.09375 C48,26.91742 44.918544,30 41.09375,30 L9.65625,30 C5.4075159,30 2,26.591371 2,22.34375 C2,18.807381 4.3841655,15.833261 7.625,14.9375 L8.375,14.75 L8.34375,13.9375 C8.33875,13.797485 8.34375,13.725319 8.34375,13.71875 C8.34375,10.941236 10.565073,8.71875 13.34375,8.71875 C14.732666,8.71875 15.999111,9.278692 16.90625,10.1875 L18,11.3125 L18.53125,9.84375 C20.103851,5.593873 24.192878,2.53125 29,2.53125 Z" id="Shape"></path>
                    </g>
                </g>
            </g>
        </g>
    </g>
</svg>