<?xml version="1.0" encoding="UTF-8"?>
<svg width="36px" height="45px" viewBox="0 0 36 45" version="1.1" xmlns="http://www.w3.org/2000/svg" xmlns:xlink="http://www.w3.org/1999/xlink">
    <!-- Generator: Sketch 42 (36781) - http://www.bohemiancoding.com/sketch -->
    <title>Anonymous Mask_000000</title>
    <desc>Created with Sketch.</desc>
    <defs></defs>
    <g id="Lending" stroke="none" stroke-width="1" fill="none" fill-rule="evenodd">
        <g id="Lendos_1-eu" transform="translate(-259.000000, -443.000000)" fill-rule="nonzero" fill="#FFFFFF">
            <g id="Anonymous-Mask_000000" transform="translate(259.000000, 443.000000)">
                <path d="M18,0 C8.059,0 0,2.686 0,6 L0,23 C0,28.083 5.417,42.083 18,45 C30.583,42.083 36,28.083 36,23 L36,6 C36,2.686 27.941,0 18,0 Z M18,2 C28.499,2 34,4.972 34,6 L34,23 C34,27.13776 29.669409,38.522745 20,42.294922 L20,36 L16,36 L16,42.294922 C6.330591,38.522745 2,27.13776 2,23 L2,6 C2,4.972 7.501,2 18,2 Z M10,9 C8.004,9 5.855,9.877 4,13 C5.953,11.64 7.613,11 9,11 C11.688,11 13.026453,14.149547 13.439453,14.560547 C14.024453,15.146547 14.974547,15.146547 15.560547,14.560547 C16.146547,13.975547 16.146547,13.025453 15.560547,12.439453 C15.194547,12.074453 13.438,9 10,9 Z M26,9 C22.562,9 20.805453,12.074453 20.439453,12.439453 C19.853453,13.025453 19.853453,13.975547 20.439453,14.560547 C21.025453,15.146547 21.975547,15.146547 22.560547,14.560547 C22.973547,14.149547 24.313,11 27,11 C28.387,11 30.047,11.64 32,13 C30.145,9.877 27.996,9 26,9 Z M9,15 C7.36,15 5.918,15.594 5,16.5 C5.918,17.406 7.36,18 9,18 C10.64,18 12.082,17.406 13,16.5 C12.082,15.594 10.64,15 9,15 Z M27,15 C25.36,15 23.918,15.594 23,16.5 C23.918,17.406 25.36,18 27,18 C28.64,18 30.082,17.406 31,16.5 C30.082,15.594 28.64,15 27,15 Z M4,24 L9,32 L16,32 L18,30 L20,32 L27,32 L32,24 L26,29 L22,29 L19,26 L17,26 L14,29 L10,29 L4,24 Z" id="Shape"></path>
            </g>
        </g>
    </g>
</svg>