<svg width="64" height="64" viewBox="0 0 64 64" xmlns="http://www.w3.org/2000/svg">
  <g fill="none" fill-rule="evenodd">
    <path d="M0 0h64v64H0z"/>
    <path d="M35.12 20.28L23.2 15.94c-.518-.19-.786-.763-.597-1.282.19-.52.763-.786 1.282-.597L40.8 20.218c.047.017.093.038.136.062H46c3.314 0 6 2.685 6 6v14c0 3.312-2.686 6-6 6H18c-3.314 0-6-2.688-6-6v-14c0-3.315 2.686-6 6-6h17.12zm-17.12 2c-2.21 0-4 1.79-4 4v14c0 2.208 1.79 4 4 4h28c2.21 0 4-1.792 4-4v-14c0-2.21-1.79-4-4-4H18zm7 18c-3.866 0-7-3.135-7-7 0-3.867 3.134-7 7-7s7 3.133 7 7c0 3.865-3.134 7-7 7zm0-2c2.76 0 5-2.24 5-5 0-2.763-2.24-5-5-5s-5 2.237-5 5c0 2.76 2.24 5 5 5zm12-10h8c.552 0 1 .446 1 1 0 .55-.448 1-1 1h-8c-.552 0-1-.45-1-1 0-.554.448-1 1-1zm0 4h8c.552 0 1 .446 1 1 0 .55-.448 1-1 1h-8c-.552 0-1-.45-1-1 0-.554.448-1 1-1zm0 4h8c.552 0 1 .446 1 1 0 .55-.448 1-1 1h-8c-.552 0-1-.45-1-1 0-.554.448-1 1-1z" fill="#FFF" opacity=".8"/>
  </g>
</svg>
