<?xml version="1.0" encoding="UTF-8"?>
<svg width="35px" height="41px" viewBox="0 0 35 41" version="1.1" xmlns="http://www.w3.org/2000/svg" xmlns:xlink="http://www.w3.org/1999/xlink">
    <!-- Generator: Sketch 42 (36781) - http://www.bohemiancoding.com/sketch -->
    <title>File_000000_-1</title>
    <desc>Created with Sketch.</desc>
    <defs></defs>
    <g id="Lending" stroke="none" stroke-width="1" fill="none" fill-rule="evenodd">
        <g id="Lendos_1-eu-Copy" transform="translate(-1223.000000, -382.000000)" fill-rule="nonzero" fill="#FFFFFF">
            <g id="Group-4" transform="translate(1223.000000, 382.000000)">
                <g id="File_000000_-1">
                    <path d="M8,0 L8,1 L8,32 L8,33 L9,33 L34,33 L35,33 L35,32 L35,7 L35,6.59375 L34.71875,6.28125 L28.71875,0.28125 L28.40625,0 L28,0 L9,0 L8,0 Z M10,2 L27,2 L27,7 L27,8 L28,8 L33,8 L33,31 L10,31 L10,2 Z M29,3.4375 L31.5625,6 L29,6 L29,3.4375 Z M4,4 L8,4 L8,6 L4,6 L4,4 Z M4,6 L6,6 L6,35 L4,35 L4,6 Z M29,33 L31,33 L31,37 L29,37 L29,33 Z M4,35 L29,35 L29,37 L4,37 L4,35 Z M0,8 L4,8 L4,10 L0,10 L0,8 Z M0,10 L2,10 L2,39 L0,39 L0,10 Z M25,37 L27,37 L27,41 L25,41 L25,37 Z M0,39 L25,39 L25,41 L0,41 L0,39 Z" id="Combined-Shape"></path>
                </g>
            </g>
        </g>
    </g>
</svg>