<?xml version="1.0" encoding="UTF-8"?>
<svg width="50px" height="26px" viewBox="0 0 50 26" version="1.1" xmlns="http://www.w3.org/2000/svg" xmlns:xlink="http://www.w3.org/1999/xlink">
    <!-- Generator: Sketch 42 (36781) - http://www.bohemiancoding.com/sketch -->
    <title>Infinity_000000</title>
    <desc>Created with Sketch.</desc>
    <defs></defs>
    <g id="Lending" stroke="none" stroke-width="1" fill="none" fill-rule="evenodd">
        <g id="Lendos_1-eu" transform="translate(-918.000000, -452.000000)" fill-rule="nonzero" fill="#FFFFFF">
            <g id="Infinity_000000" transform="translate(917.000000, 452.000000)">
                <path d="M14,0 C6.8545455,0 1,5.854545 1,13 C0.998534497,13.0312328 0.998534497,13.0625172 1,13.09375 C1.05016966,20.25021 6.8313276,26 14,26 C19.7,26 22.70625,22.40625 24.90625,17.90625 C24.50625,17.10625 24.2125,16.3 23.8125,15.5 C21.7125,20.2 19.2,24 14,24 C7.9527885,24 3.0837991,19.182597 3,13.15625 C3.00407483,13.1042464 3.00407483,13.0520036 3,13 C3,6.945455 7.9454545,2 14,2 C17.214286,2 19.225263,3.288258 20.90625,5.375 C22.587237,7.461742 23.8125,10.375 25.0625,13.375 C26.3125,16.375 27.587237,19.461742 29.53125,21.875 C31.475263,24.288258 34.214286,26 38,26 C45.145455,26 51,20.145455 51,13 C51,12.968672 51.000219,12.937524 51,12.90625 C50.94983,5.74979 45.168672,0 38,0 C32.3,0 29.29375,3.6 27.09375,8 C27.49375,8.8 27.7875,9.60625 28.1875,10.40625 C30.2875,5.80625 32.8,2 38,2 C44.047212,2 48.916201,6.817403 49,12.84375 C48.9959252,12.8957536 48.9959252,12.9479964 49,13 C49,19.054545 44.054545,24 38,24 C34.785714,24 32.774737,22.711742 31.09375,20.625 C29.412763,18.538258 28.1875,15.625 26.9375,12.625 C25.6875,9.625 24.412763,6.538258 22.46875,4.125 C20.524737,1.711742 17.785714,0 14,0 Z" id="Shape"></path>
            </g>
        </g>
    </g>
</svg>