<?xml version="1.0" encoding="UTF-8"?>
<svg width="24px" height="24px" viewBox="0 0 24 24" version="1.1" xmlns="http://www.w3.org/2000/svg" xmlns:xlink="http://www.w3.org/1999/xlink">
    <!-- Generator: Sketch 46.2 (44496) - http://www.bohemiancoding.com/sketch -->
    <title>ic_download</title>
    <desc>Created with Sketch.</desc>
    <defs></defs>
    <g id="Symbols" stroke="none" stroke-width="1" fill="none" fill-rule="evenodd">
        <g id="Item_folder" transform="translate(-1152.000000, -16.000000)">
            <g id="Group-6-Copy-10">
                <g transform="translate(1096.000000, 12.000000)">
                    <g id="Group-22">
                        <g id="Group-2" transform="translate(56.000000, 4.000000)">
                            <rect id="ic_download" x="0" y="0" width="24" height="24"></rect>
                            <path d="M13,15.6137573 L13,4.5 C13,4.22385763 12.7761424,4 12.5,4 C12.2238576,4 12,4.22385763 12,4.5 L12,4.5 L12,15.5283783 L9.360709,12.8890873 C9.16544685,12.6938252 8.84886436,12.6938252 8.65360222,12.8890873 C8.45834007,13.0843494 8.45834007,13.4009319 8.65360222,13.5961941 L12.1891361,17.131728 C12.2867672,17.2293591 12.4147284,17.2781746 12.5426895,17.2781746 C12.6706507,17.2781746 12.7986118,17.2293591 12.8962429,17.131728 L16.4317768,13.5961941 C16.627039,13.4009319 16.627039,13.0843494 16.4317768,12.8890873 C16.2365147,12.6938252 15.9199322,12.6938252 15.72467,12.8890873 L13,15.6137573 Z M5.5,19 L19.5,19 C19.7761424,19 20,19.2238576 20,19.5 C20,19.7761424 19.7761424,20 19.5,20 L5.5,20 C5.22385763,20 5,19.7761424 5,19.5 C5,19.2238576 5.22385763,19 5.5,19 L5.5,19 Z" id="Combined-Shape" fill="#222222"></path>
                        </g>
                    </g>
                </g>
            </g>
        </g>
    </g>
</svg>