<svg width="24" height="24" viewBox="0 0 24 24" xmlns="http://www.w3.org/2000/svg">
  <defs>
    <path id="a" d="M0 0h24v24H0z"/>
  </defs>
  <path d="M5.55 18.276C7.183 19.956 9.47 21 12 21c2.53 0 4.816-1.044 6.45-2.724C17.373 15.72 14.85 14 12 14s-5.372 1.72-6.45 4.276zm-.718-.833c.986-1.982 2.77-3.498 4.93-4.126C8.7 12.597 8 11.38 8 10c0-2.21 1.79-4 4-4s4 1.79 4 4c0 1.38-.7 2.598-1.763 3.317 2.16.628 3.945 2.144 4.93 4.126C20.318 15.933 21 14.046 21 12c0-4.97-4.03-9-9-9s-9 4.03-9 9c0 2.046.682 3.932 1.832 5.443zM12 22C6.477 22 2 17.523 2 12S6.477 2 12 2s10 4.477 10 10-4.477 10-10 10zm0-9c1.657 0 3-1.343 3-3s-1.343-3-3-3-3 1.343-3 3 1.343 3 3 3z" fill="#222" fill-rule="nonzero" opacity=".6"/>
</svg>
