<?xml version="1.0" encoding="UTF-8"?>
<svg width="24px" height="24px" viewBox="0 0 24 24" version="1.1" xmlns="http://www.w3.org/2000/svg" xmlns:xlink="http://www.w3.org/1999/xlink">
    <!-- Generator: Sketch 46.2 (44496) - http://www.bohemiancoding.com/sketch -->
    <title>ic_trash</title>
    <desc>Created with Sketch.</desc>
    <defs>
        <rect id="path-1" x="0" y="0" width="24" height="24"></rect>
    </defs>
    <g id="+button" stroke="none" stroke-width="1" fill="none" fill-rule="evenodd">
        <g id="Home_01-01-01-main-option_2-hover" transform="translate(-1296.000000, -456.000000)">
            <g id="object_my" transform="translate(104.000000, 432.000000)">
                <g id="Group" transform="translate(1096.000000, 24.000000)">
                    <g id="iÑ_trash" transform="translate(96.000000, 0.000000)">
                        <g id="Rectangle" opacity="0">
                            <use fill="#D8D8D8" fill-rule="evenodd" xlink:href="#path-1"></use>
                            <rect stroke="#979797" stroke-width="1" x="0.5" y="0.5" width="23" height="23"></rect>
                        </g>
                        <path d="M6,6 L4,6 L4,5 L8,5 C8,3.8954305 8.8954305,3 10,3 L14,3 C15.1045695,3 16,3.8954305 16,5 L20,5 L20,6 L18,6 L18,18 C18,19.1045695 17.1045695,20 16,20 L8,20 C6.8954305,20 6,19.1045695 6,18 L6,6 Z M9,5 L15,5 C15,4.44771525 14.5522847,4 14,4 L10,4 C9.44771525,4 9,4.44771525 9,5 Z M7,6 L7,18 C7,18.5522847 7.44771525,19 8,19 L16,19 C16.5522847,19 17,18.5522847 17,18 L17,6 L7,6 Z M10,8 L11,8 L11,17 L10,17 L10,8 Z M13,8 L14,8 L14,17 L13,17 L13,8 Z" id="Combined-Shape" fill="#222222" fill-rule="nonzero" opacity="0.600000024"></path>
                    </g>
                </g>
            </g>
        </g>
    </g>
</svg>