<svg width="24" height="24" viewBox="0 0 24 24" xmlns="http://www.w3.org/2000/svg"> <path d="M17.556 11.9c1.562-1.563 1.562-4.095 0-5.657-1.562-1.562-4.094-1.562-5.657 0l-1.06 1.06c-.196.196-.513.196-.708 0-.196-.195-.196-.512 0-.707l1.06-1.06c1.953-1.953 5.12-1.953 7.07 0 1.954 1.952 1.954 5.118 0 7.07l-1.06 1.06c-.194.197-.51.197-.706 0-.196-.194-.196-.51 0-.706l1.06-1.06zm-4.95 6.363c-1.952 1.953-5.118 1.953-7.07 0-1.953-1.952-1.953-5.118 0-7.07l1.06-1.06c.195-.197.512-.197.707 0 .196.194.196.51 0 .706l-1.06 1.06c-1.562 1.562-1.562 4.094 0 5.656 1.562 1.562 4.094 1.562 5.656 0l1.06-1.06c.195-.196.512-.196.707 0 .196.195.196.512 0 .707l-1.06 1.06zM9.072 14.02l4.95-4.95c.196-.194.513-.194.708 0 .195.196.195.513 0 .708l-4.95 4.95c-.195.195-.512.195-.707 0-.194-.195-.194-.512 0-.707z" fill="#222" fill-rule="evenodd"></path> </svg>