<?xml version="1.0" encoding="UTF-8" standalone="no"?>
<svg width="166px" height="28px" viewBox="0 0 166 28" version="1.1" xmlns="http://www.w3.org/2000/svg" xmlns:xlink="http://www.w3.org/1999/xlink">
    <!-- Generator: Sketch 44.1 (41455) - http://www.bohemiancoding.com/sketch -->
    <title>Logo_fex</title>
    <desc>Created with Sketch.</desc>
    <defs></defs>
    <g id="Components-" stroke="none" stroke-width="1" fill="none" fill-rule="evenodd">
        <g id="Header" transform="translate(-105.000000, -19.000000)">
            <g id="Group-10">
                <g id="Group-6">
                    <g id="Logo_fex" transform="translate(105.000000, 19.000000)">
                        <g id="Group-Copy-2">
                            <g id="Group">
                                <path d="M23.7152908,14.9680673 C23.7451632,14.9435799 23.7740922,14.9173692 23.8019452,14.8894355 C27.1807152,11.5008707 27.1807152,6.00873636 23.8019452,2.62017153 C20.420749,-0.770826409 14.9369173,-0.770826409 11.5557211,2.62017153 C10.3254101,3.85404913 9.51223269,5.40093658 9.18414388,7.07729971 C9.17407905,7.13359039 9.1647417,7.18932841 9.15299009,7.26315474 C9.13365042,7.38465107 9.11434587,7.5143826 9.09625473,7.64784612 C9.07777844,7.78415112 9.06156613,7.91712748 9.04823806,8.04481342 C9.02797145,8.23897208 9.01486557,8.41560867 9.01051552,8.57427219 C8.99305063,9.21128489 9.4957667,9.74183084 10.1333633,9.75927973 C10.7709599,9.77672863 11.3019921,9.27447292 11.319457,8.63746022 C11.3219859,8.54521952 11.3309513,8.42438731 11.3455868,8.28417551 C11.35629,8.18163715 11.3696912,8.07171814 11.3851677,7.95754288 C11.400708,7.84289824 11.417437,7.73047487 11.4341309,7.62559985 C11.4425416,7.57276164 11.4492162,7.53253022 11.4534013,7.50805274 C11.6958586,6.28169836 12.2906269,5.15294143 13.1921109,4.24884418 C15.6705644,1.76320579 19.6871019,1.76320579 22.1655555,4.24884418 C24.5459288,6.63611801 24.6423634,10.4482338 22.4548592,12.9509551 L22.1099552,12.3989933 C21.8846209,12.038383 21.4098867,11.9285529 21.0496066,12.1536809 C20.9285205,12.2293439 20.8309021,12.3372458 20.7676791,12.465308 L19.2075352,15.6254766 C19.0194213,16.0065131 19.1758176,16.4682164 19.5568561,16.6567197 C19.6640951,16.7097719 19.7821992,16.7370953 19.9017929,16.7365211 L23.4260557,16.7195998 C23.8509928,16.7175595 24.1935354,16.3712861 24.191146,15.9461765 C24.190343,15.8033019 24.1498064,15.6634377 24.074074,15.5422406 L23.7152908,14.9680673 Z" id="Combined-Shape" fill="#FF5252" fill-rule="nonzero"></path>
                                <path d="M13.3099993,14.4853023 C11.7244623,12.8981942 9.37863399,12.2311835 7.13047924,12.8335748 C3.72156666,13.7469901 1.69768506,17.2407681 2.60732322,20.6355839 C3.30970596,23.256912 5.58984625,25.1196397 8.26068809,25.3312271 C8.72176144,25.3677539 12.6883278,25.3607107 18.9148633,25.3284448 C19.5521439,25.3251424 20.0716736,25.8394946 20.0752653,26.4772827 C20.078857,27.1150708 19.5651506,27.6347773 18.92787,27.6380797 C12.328324,27.6722785 8.64918189,27.6788114 8.07962061,27.6336901 C4.44287289,27.3455823 1.33609878,24.8075481 0.378263619,21.2328586 C-0.862053684,16.6039314 1.89456645,11.8452447 6.53265706,10.602472 C9.52284399,9.80125387 12.6421069,10.6519095 14.7979462,12.7120362 L15.2845004,12.1321835 C15.557829,11.8064431 16.0432285,11.7637521 16.3686706,12.0368304 C16.478048,12.128609 16.5596993,12.2490467 16.6044843,12.3846615 L17.7096345,15.7312056 C17.8428877,16.1347143 17.6237568,16.5701582 17.2201919,16.7037967 C17.1066131,16.7414078 16.9858557,16.7520284 16.8675058,16.7348155 L13.3798959,16.2275763 C12.9593782,16.1664161 12.6683611,15.7758399 12.7298911,15.3551999 C12.7505706,15.2138275 12.810178,15.080966 12.9020407,14.9714883 L13.3099993,14.4853023 Z" id="Combined-Shape" fill="#FFC83C" fill-rule="nonzero"></path>
                                <path d="M20.8226703,22.0486518 C22.0871639,24.3096964 24.661018,25.5997379 27.3029166,25.1813023 C30.7375252,24.6373137 33.0806312,21.4221014 32.5389023,18.0017594 C32.4955685,17.7281603 32.4349029,17.4598826 32.35743,17.1979017 C31.6966779,14.9635148 29.8320791,13.2824319 27.5533096,12.8316765 C26.9281025,12.7080065 26.5212955,12.1005082 26.6446808,11.4747911 C26.7680661,10.8490739 27.3749202,10.4420843 28.0001273,10.5657543 C31.1159663,11.1820874 33.6644058,13.4797068 34.5702678,16.5429528 C34.6762384,16.9013008 34.7591074,17.2677674 34.8181831,17.6407567 C35.5597799,22.3230149 32.3557304,26.7196148 27.6642501,27.4626722 C23.8277642,28.0703119 20.0946544,26.0391091 18.5021278,22.5726686 L17.6273503,22.7702078 C17.4880398,22.8016664 17.342751,22.7937076 17.2077478,22.7472223 C16.806059,22.6089097 16.5926531,22.1708536 16.7310924,21.7687966 L17.9377943,18.26428 C17.9843222,18.129153 18.0675066,18.0096308 18.1780357,17.9190928 C18.5069042,17.6497058 18.9915782,17.6979945 19.2605854,18.0269486 L21.4916262,20.7551663 C21.5673352,20.8477467 21.6204262,20.956726 21.6466846,21.0734531 C21.7399853,21.4882047 21.4795978,21.9003067 21.0650929,21.9939088 L20.8226703,22.0486518 Z" id="Combined-Shape" fill="#20AEFF" fill-rule="nonzero"></path>
                                <path d="M41.5783685,3.07692308 L43.888176,3.07692308 L43.888176,26.5374039 C43.888176,27.1752397 43.371108,27.6923077 42.7332722,27.6923077 L42.7332722,27.6923077 C42.0954365,27.6923077 41.5783685,27.1752397 41.5783685,26.5374039 L41.5783685,3.07692308 Z M43.888176,3.07692308 L56.5931749,3.07692308 L56.5931749,3.07692308 C57.2304266,3.07692308 57.7470211,3.5935176 57.7470211,4.23076923 C57.7470211,4.86802087 57.2304266,5.38461538 56.5931749,5.38461538 L43.888176,5.38461538 L43.888176,3.07692308 Z M43.888176,13.8461538 L53.5134316,13.8461538 C54.1506832,13.8461538 54.6672777,14.3627484 54.6672777,15 C54.6672777,15.6372516 54.1506832,16.1538462 53.5134316,16.1538462 L43.888176,16.1538462 L43.888176,13.8461538 Z" id="Combined-Shape" fill="#FFFFFF" opacity="0"></path>
                                <path d="M89.9103013,13.6533272 L82.2026714,3.78801075 L82.2026714,3.78801075 C81.8626509,3.35280443 81.2342055,3.27564103 80.7989991,3.61566148 L80.7989991,3.61566148 L80.7880108,3.62424654 C80.3528044,3.96426698 80.275641,4.59271244 80.6156615,5.02791877 L88.6324352,15.2889212 L80.6156615,25.5499236 C80.275641,25.98513 80.3528044,26.6135754 80.7880108,26.9535959 L80.7989991,26.9621809 L80.7989991,26.9621809 C81.2342055,27.3022014 81.8626509,27.225038 82.2026714,26.7898316 L89.9103013,16.9245152 L97.6179312,26.7898316 C97.9579517,27.225038 98.5863971,27.3022014 99.0216034,26.9621809 L99.0216034,26.9621809 L99.0325918,26.9535959 C99.4677981,26.6135754 99.5449615,25.98513 99.2049411,25.5499236 L91.1881674,15.2889212 L99.2049411,5.02791877 C99.5449615,4.59271244 99.4677981,3.96426698 99.0325918,3.62424654 L99.0216034,3.61566148 L99.0216034,3.61566148 C98.5863971,3.27564103 97.9579517,3.35280443 97.6179312,3.78801075 L97.6179312,3.78801075 L89.9103013,13.6533272 Z" id="Combined-Shape" fill="#FFFFFF"></path>
                                <path d="M44,16 L44,26 C44,26.5522847 43.5522847,27 43,27 C42.4477153,27 42,26.5522847 42,26 L42,3 L43,3 L57,3 C57.5522847,3 58,3.44771525 58,4 L58,4 C58,4.55228475 57.5522847,5 57,5 L44,5 L44,14 L53,14 C53.5522847,14 54,14.4477153 54,15 C54,15.5522847 53.5522847,16 53,16 L44,16 Z" id="Combined-Shape" fill="#FFFFFF"></path>
                                <path d="M63,14 L63,5 L76,5 C76.5522847,5 77,4.55228475 77,4 L77,4 C77,3.44771525 76.5522847,3 76,3 L62,3 L61,3 L61,27 L62,27 L76,27 C76.5522847,27 77,26.5522847 77,26 C77,25.4477153 76.5522847,25 76,25 L63,25 L63,16 L72,16 C72.5522847,16 73,15.5522847 73,15 C73,14.4477153 72.5522847,14 72,14 L63,14 Z" id="Combined-Shape-Copy" fill="#FFFFFF"></path>
                            </g>
                        </g>
                        <path d="M158,5 L165,5 C165.552285,5 166,4.55228475 166,4 L166,4 C166,3.44771525 165.552285,3 165,3 L149,3 L149,3 C148.447715,3 148,3.44771525 148,4 L148,4 L148,4 C148,4.55228475 148.447715,5 149,5 L156,5 L156,26 C156,26.5522847 156.447715,27 157,27 C157.552285,27 158,26.5522847 158,26 L158,5 Z" id="Combined-Shape" fill="#FFFFFF" opacity="0.5"></path>
                        <path d="M131,14 L131,5 L144,5 C144.552285,5 145,4.55228475 145,4 L145,4 C145,3.44771525 144.552285,3 144,3 L130,3 L129,3 L129,27 L130,27 L144,27 C144.552285,27 145,26.5522847 145,26 C145,25.4477153 144.552285,25 144,25 L131,25 L131,16 L140,16 C140.552285,16 141,15.5522847 141,15 C141,14.4477153 140.552285,14 140,14 L131,14 Z" id="Combined-Shape-Copy" fill="#FFFFFF" opacity="0.5"></path>
                        <path d="M109.932542,3.63819437 C109.787549,3.26474156 109.424691,3 109,3 L109,3 L109,3 C108.447715,3 108,3.44771525 108,4 L108,4 L108,26 C108,26.5522847 108.447715,27 109,27 C109.552285,27 110,26.5522847 110,26 L110,7.11705787 L122.634302,26.5721765 C122.886477,26.9604921 123.363132,27.1151588 123.783068,26.9764057 C123.852915,26.9918545 123.925506,27 124,27 C124.552285,27 125,26.5522847 125,26 L125,4 C125,3.44771525 124.552285,3 124,3 C123.447715,3 123,3.44771525 123,4 L123,4 L123,23.4729712 L110.356034,4.00297115 L110.356034,4.00297115 C110.248449,3.83730524 110.100007,3.71416589 109.932542,3.63819437 Z" id="Combined-Shape" fill="#FFFFFF" opacity="0.5"></path>
                        <circle id="Oval" fill="#FFFFFF" opacity="0.5" cx="104" cy="26" r="1"></circle>
                    </g>
                </g>
            </g>
        </g>
    </g>
</svg>