<?xml version="1.0" encoding="UTF-8"?>
<svg width="10px" height="26px" viewBox="0 0 10 26" version="1.1" xmlns="http://www.w3.org/2000/svg" xmlns:xlink="http://www.w3.org/1999/xlink">
    <defs></defs>
    <g id="Object" stroke="none" stroke-width="1" fill="none" fill-rule="evenodd">
        <g id="Object_checkbox" transform="translate(-57.000000, -486.000000)" fill="#D8D8D8">
            <g id="Group-9" transform="translate(57.000000, 486.000000)">
                <g id="Group-7">
                    <rect id="Rectangle-13" x="0" y="0" width="2" height="2"></rect>
                    <rect id="Rectangle-13" x="4" y="0" width="2" height="2"></rect>
                    <rect id="Rectangle-13" x="8" y="0" width="2" height="2"></rect>
                    <rect id="Rectangle-13" x="0" y="4" width="2" height="2"></rect>
                    <rect id="Rectangle-13" x="4" y="4" width="2" height="2"></rect>
                    <rect id="Rectangle-13" x="8" y="4" width="2" height="2"></rect>
                    <rect id="Rectangle-13" x="0" y="8" width="2" height="2"></rect>
                    <rect id="Rectangle-13" x="4" y="8" width="2" height="2"></rect>
                    <rect id="Rectangle-13" x="8" y="8" width="2" height="2"></rect>
                    <rect id="Rectangle-13" x="0" y="12" width="2" height="2"></rect>
                    <rect id="Rectangle-13" x="4" y="12" width="2" height="2"></rect>
                    <rect id="Rectangle-13" x="8" y="12" width="2" height="2"></rect>
                    <rect id="Rectangle-13" x="0" y="16" width="2" height="2"></rect>
                    <rect id="Rectangle-13" x="4" y="16" width="2" height="2"></rect>
                    <rect id="Rectangle-13" x="8" y="16" width="2" height="2"></rect>
                    <rect id="Rectangle-13" x="0" y="20" width="2" height="2"></rect>
                    <rect id="Rectangle-13" x="4" y="20" width="2" height="2"></rect>
                    <rect id="Rectangle-13" x="8" y="20" width="2" height="2"></rect>
                    <rect id="Rectangle-13" x="0" y="24" width="2" height="2"></rect>
                    <rect id="Rectangle-13" x="4" y="24" width="2" height="2"></rect>
                    <rect id="Rectangle-13" x="8" y="24" width="2" height="2"></rect>
                </g>
            </g>
        </g>
    </g>
</svg>