<?xml version="1.0" encoding="UTF-8"?>
<svg width="40px" height="40px" viewBox="0 0 40 40" version="1.1" xmlns="http://www.w3.org/2000/svg" xmlns:xlink="http://www.w3.org/1999/xlink">
    <!-- Generator: Sketch 41.2 (35397) - http://www.bohemiancoding.com/sketch -->
    <title>aa</title>
    <desc>Created with Sketch.</desc>
    <defs></defs>
    <g id="Icons" stroke="none" stroke-width="1" fill="none" fill-rule="evenodd">
        <g id="aa">
            <rect id="Rectangle-4-Copy-3" fill="#FE0C0C" opacity="0.049999997" x="0" y="0" width="40" height="40" rx="5"></rect>
            <g id="Audio-Wave_000000_-1" transform="translate(8.000000, 10.000000)" fill-opacity="0.925724638" fill="#EA8F66">
                <path d="M6.01470588,0.484375 C5.52981543,0.540990058 5.16597915,0.981822393 5.17647059,1.5 L5.17647059,18.5 C5.17167032,18.8606359 5.35000028,19.1960814 5.64317445,19.3778877 C5.93634861,19.5596941 6.2989455,19.5596941 6.59211967,19.3778877 C6.88529384,19.1960814 7.0636238,18.8606359 7.05882353,18.5 L7.05882353,1.5 C7.06280928,1.22936347 6.96338095,0.968567442 6.78324697,0.777175092 C6.603113,0.585782742 6.35765791,0.480140143 6.10294118,0.484375 C6.07354558,0.482909497 6.04410148,0.482909497 6.01470588,0.484375 L6.01470588,0.484375 Z M17.3088235,0.484375 C16.8239331,0.540990058 16.4600968,0.981822393 16.4705882,1.5 L16.4705882,18.5 C16.465788,18.8606359 16.6441179,19.1960814 16.9372921,19.3778877 C17.2304663,19.5596941 17.5930631,19.5596941 17.8862373,19.3778877 C18.1794115,19.1960814 18.3577414,18.8606359 18.3529412,18.5 L18.3529412,1.5 C18.3569269,1.22936347 18.2574986,0.968567442 18.0773646,0.777175092 C17.8972306,0.585782742 17.6517756,0.480140143 17.3970588,0.484375 C17.3676632,0.482909497 17.3382191,0.482909497 17.3088235,0.484375 L17.3088235,0.484375 Z M3.19117647,4.984375 C2.70628602,5.04099006 2.34244974,5.48182239 2.35294118,6 L2.35294118,14 C2.3481409,14.3606359 2.52647087,14.6960814 2.81964504,14.8778877 C3.1128192,15.0596941 3.47541609,15.0596941 3.76859026,14.8778877 C4.06176443,14.6960814 4.24009439,14.3606359 4.23529412,14 L4.23529412,6 C4.23927987,5.72936347 4.13985154,5.46856744 3.95971756,5.27717509 C3.77958358,5.08578274 3.5341285,4.98014014 3.27941176,4.984375 C3.25001617,4.9829095 3.22057206,4.9829095 3.19117647,4.984375 L3.19117647,4.984375 Z M20.1323529,4.984375 C19.6474625,5.04099006 19.2836262,5.48182239 19.2941176,6 L19.2941176,14 C19.2893174,14.3606359 19.4676473,14.6960814 19.7608215,14.8778877 C20.0539957,15.0596941 20.4165926,15.0596941 20.7097667,14.8778877 C21.0029409,14.6960814 21.1812709,14.3606359 21.1764706,14 L21.1764706,6 C21.1804563,5.72936347 21.081028,5.46856744 20.900894,5.27717509 C20.7207601,5.08578274 20.475305,4.98014014 20.2205882,4.984375 C20.1911926,4.9829095 20.1617485,4.9829095 20.1323529,4.984375 Z M8.83823529,5.484375 C8.35334484,5.54099006 7.98950856,5.98182239 8,6.5 L8,13.5 C7.99519973,13.8606359 8.17352969,14.1960814 8.46670386,14.3778877 C8.75987803,14.5596941 9.12247491,14.5596941 9.41564908,14.3778877 C9.70882325,14.1960814 9.88715321,13.8606359 9.88235294,13.5 L9.88235294,6.5 C9.88633869,6.22936347 9.78691036,5.96856744 9.60677638,5.77717509 C9.42664241,5.58578274 9.18118732,5.48014014 8.92647059,5.484375 C8.89707499,5.4829095 8.86763089,5.4829095 8.83823529,5.484375 Z M14.4852941,5.484375 C14.0004037,5.54099006 13.6365674,5.98182239 13.6470588,6.5 L13.6470588,13.5 C13.6422586,13.8606359 13.8205885,14.1960814 14.1137627,14.3778877 C14.4069369,14.5596941 14.7695337,14.5596941 15.0627079,14.3778877 C15.3558821,14.1960814 15.534212,13.8606359 15.5294118,13.5 L15.5294118,6.5 C15.5333975,6.22936347 15.4339692,5.96856744 15.2538352,5.77717509 C15.0737012,5.58578274 14.8282461,5.48014014 14.5735294,5.484375 C14.5441338,5.4829095 14.5146897,5.4829095 14.4852941,5.484375 L14.4852941,5.484375 Z M0.426470588,7.984375 C0.40656703,7.9882345 0.38691842,7.99345366 0.367647059,8 C0.148527764,8.05213913 -0.00540521589,8.26148798 4.59755931e-15,8.5 L4.59755931e-15,11.5 C-0.00240013626,11.680318 0.0867648453,11.8480407 0.233351929,11.9389439 C0.379939013,12.029847 0.561237457,12.029847 0.707824541,11.9389439 C0.854411625,11.8480407 0.943576607,11.680318 0.941176471,11.5 L0.941176471,8.5 C0.945998863,8.35616711 0.892259184,8.21710061 0.793701382,8.11836681 C0.69514358,8.01963302 0.561325285,7.97080662 0.426470588,7.984375 L0.426470588,7.984375 Z M11.6617647,7.984375 C11.1768743,8.04099006 10.813038,8.48182239 10.8235294,9 L10.8235294,11 C10.8187291,11.3606359 10.9970591,11.6960814 11.2902333,11.8778877 C11.5834074,12.0596941 11.9460043,12.0596941 12.2391785,11.8778877 C12.5323527,11.6960814 12.7106826,11.3606359 12.7058824,11 L12.7058824,9 C12.7098681,8.72936347 12.6104398,8.46856744 12.4303058,8.27717509 C12.2501718,8.08578274 12.0047167,7.98014014 11.75,7.984375 C11.7206044,7.9829095 11.6911603,7.9829095 11.6617647,7.984375 L11.6617647,7.984375 Z M23.0147059,7.984375 C22.9948023,7.9882345 22.9751537,7.99345366 22.9558824,8 C22.7367631,8.05213913 22.5828301,8.26148798 22.5882353,8.5 L22.5882353,11.5 C22.5858352,11.680318 22.6750001,11.8480407 22.8215872,11.9389439 C22.9681743,12.029847 23.1494728,12.029847 23.2960598,11.9389439 C23.4426469,11.8480407 23.5318119,11.680318 23.5294118,11.5 L23.5294118,8.5 C23.5342342,8.35616711 23.4804945,8.21710061 23.3819367,8.11836681 C23.2833789,8.01963302 23.1495606,7.97080662 23.0147059,7.984375 Z" id="Shape"></path>
            </g>
        </g>
    </g>
</svg>