<?xml version="1.0" encoding="UTF-8"?>
<svg width="40px" height="40px" viewBox="0 0 40 40" version="1.1" xmlns="http://www.w3.org/2000/svg" xmlns:xlink="http://www.w3.org/1999/xlink">
    <!-- Generator: Sketch 41.2 (35397) - http://www.bohemiancoding.com/sketch -->
    <title>avi</title>
    <desc>Created with Sketch.</desc>
    <defs></defs>
    <g id="Icons" stroke="none" stroke-width="1" fill="none" fill-rule="evenodd">
        <g id="avi">
            <rect id="Rectangle-4-Copy-3" fill="#FC2929" opacity="0.099999994" x="0" y="0" width="40" height="40" rx="5"></rect>
            <g id="AVI_000000_-1" transform="translate(10.000000, 7.000000)" fill="#E98484">
                <path d="M0,0 L0,1 L0,17 L2,7 L2,2 L18,2 L18,7 L20,17 L20,1 L20,0 L19,0 L16.256745,0 L1,0 L0,0 Z M4.15625,8 L3.9375,8.6875 L2.03125,14.6875 L2,14.84375 L2,15 L2,16 L4,16 L4,15.21875 L4.0625,15 L5.9375,15 L6,15.21875 L6,16 L8,16 L8,15 L8,14.84375 L7.96875,14.6875 L6.0625,8.6875 L5.84375,8 L5.09375,8 L4.90625,8 L4.15625,8 Z M8,8 L8,9 L8,9.15625 L8.0625,9.3125 L10.0625,15.3125 L11,18.15625 L11.9375,15.3125 L13.9375,9.3125 L14,9.15625 L14,9 L14,8 L12,8 L12,8.875 L11,11.875 L10,8.875 L10,8 L8,8 Z M15,8 L15,16 L17,16 L17,8 L15,8 Z M5,12 L5.3125,13 L4.6875,13 L5,12 Z M0,22 L1,22 L19,22 L20,22 L18,20 L2,20 L0,22 Z" id="Shape"></path>
            </g>
        </g>
    </g>
</svg>