<?xml version="1.0" encoding="UTF-8"?>
<svg width="40px" height="40px" viewBox="0 0 40 40" version="1.1" xmlns="http://www.w3.org/2000/svg" xmlns:xlink="http://www.w3.org/1999/xlink">
    <!-- Generator: Sketch 41.2 (35397) - http://www.bohemiancoding.com/sketch -->
    <title>doc</title>
    <desc>Created with Sketch.</desc>
    <defs></defs>
    <g id="Icons" stroke="none" stroke-width="1" fill="none" fill-rule="evenodd">
        <g id="doc" fill="#4990E2">
            <g id="Microsoft-Word_000000_-1" transform="translate(8.000000, 8.000000)">
                <path d="M13.83,0.015 L0.39,2.565 C0.16344,2.6082 0,2.8146 0,3.045 L0,20.955 C0,21.1854 0.16344,21.39228 0.39,21.435 L13.83,23.985 C13.85976,23.99076 13.89024,24 13.92,24 C14.0304,24 14.13312,23.96652 14.22,23.895 C14.32992,23.80332 14.4,23.66304 14.4,23.52 L14.4,0.48 C14.4,0.33696 14.32992,0.1962 14.22,0.105 C14.1096,0.0138 13.97016,-0.01188 13.83,0.015 Z M15.36,2.88 L15.36,6.24 L21.12,6.24 L21.12,7.2 L15.36,7.2 L15.36,9.6 L21.12,9.6 L21.12,10.56 L15.36,10.56 L15.36,12.96 L21.12,12.96 L21.12,13.92 L15.36,13.92 L15.36,16.8 L21.12,16.8 L21.12,17.76 L15.36,17.76 L15.36,21.12 L22.56,21.12 C23.08944,21.12 23.52,20.68944 23.52,20.16 L23.52,3.84 C23.52,3.31056 23.08944,2.88 22.56,2.88 L15.36,2.88 Z M2.22,7.515 L3.93,7.515 L4.905,13.485 C4.94724,13.73892 4.9758,14.0904 4.995,14.52 L5.025,14.52 C5.03748,14.19888 5.09388,13.85016 5.175,13.47 L6.435,7.515 L8.115,7.515 L9.255,13.545 C9.29676,13.7658 9.32736,14.08356 9.36,14.505 L9.375,14.505 C9.38796,14.17572 9.42432,13.83744 9.48,13.5 L10.44,7.515 L12.03,7.515 L10.185,16.485 L8.445,16.485 L7.29,10.74 C7.22904,10.43952 7.19796,10.09104 7.185,9.72 L7.17,9.72 C7.14072,10.12896 7.08972,10.47648 7.035,10.74 L5.85,16.485 L4.05,16.485 L2.22,7.515 Z" id="Shape"></path>
            </g>
        </g>
    </g>
</svg>