<?xml version="1.0" encoding="UTF-8"?>
<svg width="40px" height="40px" viewBox="0 0 40 40" version="1.1" xmlns="http://www.w3.org/2000/svg" xmlns:xlink="http://www.w3.org/1999/xlink">
    <!-- Generator: Sketch 41.2 (35397) - http://www.bohemiancoding.com/sketch -->
    <title>flac</title>
    <desc>Created with Sketch.</desc>
    <defs></defs>
    <g id="Icons" stroke="none" stroke-width="1" fill="none" fill-rule="evenodd">
        <g id="flac">
            <rect id="Rectangle-4-Copy-3" fill="#0CFE0E" opacity="0.049999997" x="0" y="0" width="40" height="40" rx="5"></rect>
            <g id="Headphones_000000_-1" transform="translate(8.000000, 11.000000)" fill="#417505">
                <path d="M12,0 C7.88688,0 4.4364,2.93327027 3.57,6.84121622 C3.65784,6.831 3.74976,6.81081081 3.84,6.81081081 C4.08624,6.81081081 4.32132,6.86237838 4.545,6.93243243 C5.35908,3.5207027 8.38704,0.972972973 12,0.972972973 C15.61248,0.972972973 18.64092,3.5207027 19.455,6.93243243 C19.67868,6.86237838 19.91376,6.81081081 20.16,6.81081081 C20.25024,6.81081081 20.34168,6.831 20.43,6.84121622 C19.5636,2.93327027 16.11264,0 12,0 Z M3.84,7.78378378 C3.04608,7.78378378 2.4,8.43859459 2.4,9.24324324 L2.4,16.5405405 C2.4,17.3451892 3.04608,18 3.84,18 C4.63392,18 5.28,17.3451892 5.28,16.5405405 L5.28,9.24324324 C5.28,8.43859459 4.63392,7.78378378 3.84,7.78378378 Z M20.16,7.78378378 C19.36608,7.78378378 18.72,8.43859459 18.72,9.24324324 L18.72,16.5405405 C18.72,17.3451892 19.36608,18 20.16,18 C20.95392,18 21.6,17.3451892 21.6,16.5405405 L21.6,9.24324324 C21.6,8.43859459 20.95392,7.78378378 20.16,7.78378378 Z M1.44,9.30405405 C0.5736,10.0094595 0,11.3322162 0,12.8918919 C0,14.4515676 0.5736,15.7738378 1.44,16.4797297 L1.44,9.30405405 Z M22.56,9.30405405 L22.56,16.4797297 C23.4264,15.7743243 24,14.4515676 24,12.8918919 C24,11.3322162 23.4264,10.0094595 22.56,9.30405405 Z" id="Shape"></path>
            </g>
        </g>
    </g>
</svg>