<?xml version="1.0" encoding="UTF-8" standalone="no"?>
<svg width="40px" height="40px" viewBox="0 0 40 40" version="1.1" xmlns="http://www.w3.org/2000/svg" xmlns:xlink="http://www.w3.org/1999/xlink">
    <defs>
        <rect id="path-1" x="0" y="0" width="1232" height="56"></rect>
        <filter x="-0.0%" y="-0.9%" width="100.1%" height="101.8%" filterUnits="objectBoundingBox" id="filter-2">
            <feOffset dx="0" dy="-1" in="SourceAlpha" result="shadowOffsetInner1"></feOffset>
            <feComposite in="shadowOffsetInner1" in2="SourceAlpha" operator="arithmetic" k2="-1" k3="1" result="shadowInnerInner1"></feComposite>
            <feColorMatrix values="0 0 0 0 0.876169218   0 0 0 0 0.876169218   0 0 0 0 0.876169218  0 0 0 1 0" type="matrix" in="shadowInnerInner1"></feColorMatrix>
        </filter>
    </defs>
    <g id="Folders-main" stroke="none" stroke-width="1" fill="none" fill-rule="evenodd">
        <g id="Folders_v3-Copy" transform="translate(-104.000000, -306.000000)">
            <g id="Folder_2" transform="translate(104.000000, 298.000000)">
                <g id="Rectangle-14" fill-opacity="1" fill="black">
                    <use filter="url(#filter-2)" xlink:href="#path-1"></use>
                </g>
                <g id="ic_folder" transform="translate(0.000000, 8.000000)">
                    <rect id="Rectangle-15" fill="#D8D8D8" opacity="0" x="0" y="0" width="40" height="40"></rect>
                    <g id="Group-5" opacity="0.600000024" transform="translate(6.000000, 9.000000)" fill-rule="nonzero">
                        <path d="M0,3.5 L0,1.75 C0,1.33 0.43510929,0.875 0.875,0.875 L18.375,0.875 L15.75,3.5 L0,3.5 Z" id="Shape" fill="#AEAEAE"></path>
                        <path d="M19.6642136,1 L16.1642136,4.5 L1,4.5 L1,19 C1,19.5522847 1.44771525,20 2,20 L26,20 C26.5522847,20 27,19.5522847 27,19 L27,2 C27,1.44771525 26.5522847,1 26,1 L19.6642136,1 Z M26,-2.22044605e-16 C27.1045695,1.53715886e-15 28,0.8954305 28,2 L28,19 C28,20.1045695 27.1045695,21 26,21 L2,21 C0.8954305,21 1.3527075e-16,20.1045695 0,19 L0,3.5 L15.75,3.5 L19.25,0 L26,-2.22044605e-16 Z" id="Path" fill="#979797"></path>
                    </g>
                </g>
            </g>
        </g>
    </g>
</svg>