<?xml version="1.0" encoding="UTF-8"?>
<svg width="40px" height="40px" viewBox="0 0 40 40" version="1.1" xmlns="http://www.w3.org/2000/svg" xmlns:xlink="http://www.w3.org/1999/xlink">
    <!-- Generator: Sketch 41.2 (35397) - http://www.bohemiancoding.com/sketch -->
    <title>mov</title>
    <desc>Created with Sketch.</desc>
    <defs></defs>
    <g id="Icons" stroke="none" stroke-width="1" fill="none" fill-rule="evenodd">
        <g id="mov">
            <rect id="Rectangle-4-Copy-3" fill="#129DED" opacity="0.076098276" x="0" y="0" width="40" height="40" rx="5"></rect>
            <g id="QuickTime_Logo" transform="translate(8.000000, 8.000000)" fill="#24A8ED">
                <g id="Layer_x0020_1">
                    <path d="M23.7601066,19.8338199 L22.1181697,18.1684258 C22.0861839,18.136088 22.075522,18.0983607 22.075522,18.0552437 C22.075522,18.0282955 22.0861839,17.9959578 22.0968458,17.9743993 C23.109729,16.2119919 23.6908041,14.1639344 23.6908041,11.9757467 C23.6908041,5.36267685 18.3864949,0 11.845402,0 C5.3043092,0 0,5.36267685 0,11.9757467 C0,18.5888165 5.3043092,23.9514934 11.845402,23.9514934 C14.1910262,23.9514934 16.3767215,23.2616214 18.2105731,22.0759039 C18.2372279,22.059735 18.2692137,22.0489558 18.3011995,22.0489558 C18.3491781,22.0489558 18.3864949,22.0651246 18.4184807,22.0920728 L20.0657486,23.7574669 C20.1936917,23.8922075 20.449578,24 20.6361617,24 L23.6694802,24 C23.850733,24 24,23.8490905 24,23.6604536 L24,20.4158994 C24,20.2326521 23.8933807,19.9739501 23.7654376,19.8392095 L23.7601066,19.8338199 Z M18.9782319,11.8733438 C18.9782319,15.8562767 15.7849845,19.0792724 11.850733,19.0792724 C7.91648156,19.0792724 4.71790315,15.850887 4.71790315,11.8733438 C4.71790315,7.89041096 7.9111506,4.6620256 11.850733,4.6620256 C13.482008,4.6620256 14.9800089,5.21715697 16.1848068,6.14956209 L18.2958685,4.0152706 L19.6605953,5.40040422 L17.5442026,7.54008534 C18.4451355,8.74736133 18.9729009,10.2456771 18.9729009,11.8733438 L18.9782319,11.8733438 Z M16.1794758,6.14956209 L12.2398934,10.1324949 C12.1119502,10.1001572 11.9786761,10.0893779 11.845402,10.0893779 C10.8751666,10.0893779 10.0915149,10.8816528 10.0915149,11.8625646 C10.0915149,12.8434763 10.8804976,13.6411408 11.845402,13.6411408 C12.8156375,13.6411408 13.5992892,12.8434763 13.5992892,11.8625646 C13.5992892,11.7601617 13.5886273,11.6577588 13.5726344,11.5553559 L17.5442026,7.54008534 C17.1550422,7.01729171 16.6965793,6.54839434 16.1848068,6.14956209 L16.1794758,6.14956209 Z M11.845402,12.5901639 C11.4455797,12.5901639 11.1257219,12.2613968 11.1257219,11.8571749 C11.1257219,11.4529531 11.4455797,11.1295756 11.845402,11.1295756 C12.2452243,11.1295756 12.5650822,11.4583427 12.5650822,11.8571749 C12.5650822,12.2613968 12.2398934,12.5901639 11.845402,12.5901639 Z" id="path10"></path>
                </g>
            </g>
        </g>
    </g>
</svg>