<?xml version="1.0" encoding="UTF-8"?>
<svg width="40px" height="40px" viewBox="0 0 40 40" version="1.1" xmlns="http://www.w3.org/2000/svg" xmlns:xlink="http://www.w3.org/1999/xlink">
    <!-- Generator: Sketch 41.2 (35397) - http://www.bohemiancoding.com/sketch -->
    <title>mp4</title>
    <desc>Created with Sketch.</desc>
    <defs></defs>
    <g id="Icons" stroke="none" stroke-width="1" fill="none" fill-rule="evenodd">
        <g id="mp4">
            <rect id="Rectangle-4-Copy-3" fill="#FFBA00" opacity="0.0963088738" x="0" y="0" width="40" height="40" rx="5"></rect>
            <g id="Movie_000000_-1" transform="translate(9.000000, 10.000000)" fill="#F3C443">
                <path d="M0,0 L0,0.5 L0,20.5 L0,21 L0.5,21 L20.5,21 L21,21 L21,20.5 L21,0.5 L21,0 L20.5,0 L0.5,0 L0,0 Z M1,1 L3,1 L3,2.5 L1,2.5 L1,1 Z M4,1 L17,1 L17,10 L4,10 L4,1 Z M18,1 L20,1 L20,2.5 L18,2.5 L18,1 Z M1,3.5 L3,3.5 L3,5 L1,5 L1,3.5 Z M18,3.5 L20,3.5 L20,5 L18,5 L18,3.5 Z M1,6 L3,6 L3,7.5 L1,7.5 L1,6 Z M18,6 L20,6 L20,7.5 L18,7.5 L18,6 Z M1,8.5 L3,8.5 L3,10 L1,10 L1,8.5 Z M18,8.5 L20,8.5 L20,10 L18,10 L18,8.5 Z M1,11 L3,11 L3,12.5 L1,12.5 L1,11 Z M4,11 L17,11 L17,20 L4,20 L4,11 Z M18,11 L20,11 L20,12.5 L18,12.5 L18,11 Z M1,13.5 L3,13.5 L3,15 L1,15 L1,13.5 Z M18,13.5 L20,13.5 L20,15 L18,15 L18,13.5 Z M1,16 L3,16 L3,17.5 L1,17.5 L1,16 Z M18,16 L20,16 L20,17.5 L18,17.5 L18,16 Z M1,18.5 L3,18.5 L3,20 L1,20 L1,18.5 Z M18,18.5 L20,18.5 L20,20 L18,20 L18,18.5 Z" id="Shape"></path>
            </g>
        </g>
    </g>
</svg>