<?xml version="1.0" encoding="UTF-8"?>
<svg width="40px" height="40px" viewBox="0 0 40 40" version="1.1" xmlns="http://www.w3.org/2000/svg" xmlns:xlink="http://www.w3.org/1999/xlink">
    <!-- Generator: Sketch 41.2 (35397) - http://www.bohemiancoding.com/sketch -->
    <title>ogg</title>
    <desc>Created with Sketch.</desc>
    <defs></defs>
    <g id="Icons" stroke="none" stroke-width="1" fill="none" fill-rule="evenodd">
        <g id="ogg">
            <rect id="Rectangle-4-Copy-3" fill="#E776CC" opacity="0.076098276" x="0" y="0" width="40" height="40" rx="5"></rect>
            <g id="AV-Receiver_000000_-1" transform="translate(8.000000, 19.000000)">
                <g id="Group">
                    <path d="M24,9 C24,9.6624 23.4624,10.2 22.8,10.2 L1.2,10.2 C0.5376,10.2 0,9.6624 0,9 L0,1.2 C0,0.5376 0.5376,0 1.2,0 L22.8,0 C23.4624,0 24,0.5376 24,1.2 L24,9 Z" id="Shape" fill="#B0BEC5"></path>
                    <rect id="Rectangle-path" fill="#263238" x="6" y="1.8" width="10.8" height="3.6"></rect>
                    <g transform="translate(1.800000, 1.800000)" fill="#455A64">
                        <ellipse id="Oval" cx="18.6" cy="1.8" rx="1.8" ry="1.8"></ellipse>
                        <ellipse id="Oval" cx="1.2" cy="1.8" rx="1.2" ry="1.2"></ellipse>
                        <rect id="Rectangle-path" x="3" y="5.4" width="2.4" height="1.2"></rect>
                        <rect id="Rectangle-path" x="6.6" y="5.4" width="2.4" height="1.2"></rect>
                        <rect id="Rectangle-path" x="10.2" y="5.4" width="2.4" height="1.2"></rect>
                        <rect id="Rectangle-path" x="13.8" y="5.4" width="2.4" height="1.2"></rect>
                    </g>
                    <rect id="Rectangle-path" fill="#CDDC39" x="7.2" y="3" width="5.4" height="1.2"></rect>
                </g>
            </g>
            <g id="OGG_000000_-1" transform="translate(12.000000, 10.000000)" fill="#BF5FB0">
                <path d="M2.35294118,0 C1.05098042,0 0,1.05098071 0,2.35294118 L0,5.17647059 C0,6.47843106 1.05098042,7.52941176 2.35294118,7.52941176 C3.65490165,7.52941176 4.70588235,6.47843106 4.70588235,5.17647059 L4.70588235,2.35294118 C4.70588235,1.05098071 3.65490165,0 2.35294118,0 Z M8,0 C6.69803953,0 5.64705882,1.05098071 5.64705882,2.35294118 L5.64705882,5.17647059 C5.64705882,6.47843106 6.69803953,7.52941176 8,7.52941176 L9.41176471,7.52941176 L10.3529412,7.52941176 L10.3529412,6.58823529 L10.3529412,4.70588235 L10.3529412,3.76470588 L9.41176471,3.76470588 L8.47058824,3.76470588 L8.47058824,4.70588235 L8.47058824,5.64705882 L8,5.64705882 C7.79607812,5.64705882 7.52941176,5.38039247 7.52941176,5.17647059 L7.52941176,2.35294118 C7.52941176,2.14901929 7.79607812,1.88235294 8,1.88235294 C8.20392188,1.88235294 8.47058824,2.14901929 8.47058824,2.35294118 L8.47058824,2.82352941 L10.3529412,2.82352941 L10.3529412,2.35294118 C10.3529412,1.05098071 9.30196047,0 8,0 Z M13.6470588,0 C12.3450984,0 11.2941176,1.05098071 11.2941176,2.35294118 L11.2941176,5.17647059 C11.2941176,6.47843106 12.3450984,7.52941176 13.6470588,7.52941176 L15.0588235,7.52941176 L16,7.52941176 L16,6.58823529 L16,4.70588235 L16,3.76470588 L15.0588235,3.76470588 L14.1176471,3.76470588 L14.1176471,4.70588235 L14.1176471,5.64705882 L13.6470588,5.64705882 C13.4431369,5.64705882 13.1764706,5.38039247 13.1764706,5.17647059 L13.1764706,2.35294118 C13.1764706,2.14901929 13.4431369,1.88235294 13.6470588,1.88235294 C13.8509807,1.88235294 14.1176471,2.14901929 14.1176471,2.35294118 L14.1176471,2.82352941 L16,2.82352941 L16,2.35294118 C16,1.05098071 14.9490193,0 13.6470588,0 Z M2.35294118,1.88235294 C2.55686306,1.88235294 2.82352941,2.14901929 2.82352941,2.35294118 L2.82352941,5.17647059 C2.82352941,5.38039247 2.55686306,5.64705882 2.35294118,5.64705882 C2.14901929,5.64705882 1.88235294,5.38039247 1.88235294,5.17647059 L1.88235294,2.35294118 C1.88235294,2.14901929 2.14901929,1.88235294 2.35294118,1.88235294 Z" id="Shape"></path>
            </g>
        </g>
    </g>
</svg>