<?xml version="1.0" encoding="UTF-8"?>
<svg width="40px" height="40px" viewBox="0 0 40 40" version="1.1" xmlns="http://www.w3.org/2000/svg" xmlns:xlink="http://www.w3.org/1999/xlink">
    <!-- Generator: Sketch 41.2 (35397) - http://www.bohemiancoding.com/sketch -->
    <title>rar</title>
    <desc>Created with Sketch.</desc>
    <defs>
        <rect id="path-1" x="15" y="17" width="7" height="6" rx="2"></rect>
        <mask id="mask-2" maskContentUnits="userSpaceOnUse" maskUnits="objectBoundingBox" x="0" y="0" width="7" height="6" fill="white">
            <use xlink:href="#path-1"></use>
        </mask>
    </defs>
    <g id="Icons" stroke="none" stroke-width="1" fill="none" fill-rule="evenodd">
        <g id="rar">
            <rect id="Rectangle-4-Copy-3" fill="#E50E53" opacity="0.1" x="0" y="0" width="40" height="40" rx="5"></rect>
            <rect id="Rectangle-2" fill="#1E991C" x="8" y="24" width="24" height="8" rx="2"></rect>
            <rect id="Rectangle-2-Copy" fill="#C668BB" x="8" y="8" width="24" height="8" rx="2"></rect>
            <rect id="Rectangle-2" fill="#1F3DC9" x="8" y="16" width="24" height="8" rx="2"></rect>
            <path d="M14.1571958,19.533251 C13.8920992,19.5705302 13.7074166,19.8156543 13.7446959,20.080751 C13.7819751,20.3458477 14.0270992,20.5305302 14.2921958,20.493251 L19.0921958,20.493251 C19.2653011,20.4956991 19.4263149,20.4047509 19.513582,20.255232 C19.600849,20.1057132 19.600849,19.9207888 19.513582,19.77127 C19.4263149,19.6217511 19.2653011,19.5308029 19.0921958,19.533251 L14.2921958,19.533251 C14.2772041,19.5325476 14.2621876,19.5325476 14.2471958,19.533251 C14.2322041,19.5325483 14.2171876,19.5325483 14.2021958,19.533251 C14.187204,19.5325506 14.1721877,19.5325506 14.1571958,19.533251 Z" id="Path" fill="#000000" transform="translate(16.659472, 20.032723) rotate(270.000000) translate(-16.659472, -20.032723) "></path>
            <rect id="Rectangle-6" fill="#B63D27" x="16" y="7" width="5" height="26" rx="2"></rect>
            <rect id="Rectangle-3" fill="#000000" opacity="0.75" x="27" y="17" width="2" height="6" rx="1"></rect>
            <use id="Rectangle" stroke="#BFBCBC" mask="url(#mask-2)" stroke-width="2" fill="#AF341D" xlink:href="#path-1"></use>
            <rect id="Rectangle-4" fill="#000000" opacity="0.75" x="28" y="25" width="1" height="6" rx="0.5"></rect>
            <rect id="Rectangle-4-Copy" fill="#000000" opacity="0.75" x="28" y="9" width="1" height="6" rx="0.5"></rect>
            <rect id="Rectangle-5" fill="#A3A3A3" x="18" y="17" width="1" height="4" rx="0.5"></rect>
        </g>
    </g>
</svg>