<?xml version="1.0" encoding="UTF-8"?>
<svg width="40px" height="40px" viewBox="0 0 40 40" version="1.1" xmlns="http://www.w3.org/2000/svg" xmlns:xlink="http://www.w3.org/1999/xlink">
    <!-- Generator: Sketch 41.2 (35397) - http://www.bohemiancoding.com/sketch -->
    <title>vob</title>
    <desc>Created with Sketch.</desc>
    <defs></defs>
    <g id="Icons" stroke="none" stroke-width="1" fill="none" fill-rule="evenodd">
        <g id="vob">
            <rect id="Rectangle-4-Copy-3" fill="#21E135" opacity="0.076098276" x="0" y="0" width="40" height="40" rx="5"></rect>
            <g id="Vegas_000000_-1" transform="translate(11.000000, 10.000000)">
                <g id="Group">
                    <path d="M1.52952632,20.3688947 C1.39357895,20.3688947 1.25668421,20.3504211 1.12215789,20.313 C0.726631579,20.2035789 0.397894737,19.944 0.196105263,19.5830526 C0.0667894737,19.3504737 -0.000947368421,19.0866316 3.56234953e-15,18.8199474 L3.56234953e-15,2.02878947 C-0.00994736842,1.18468421 0.666,0.484105263 1.50726316,0.473684211 C1.78673684,0.467526316 2.04678947,0.540947368 2.28031579,0.675 L17.3183684,9.23873684 C17.964,9.61105263 18.1894737,10.4423684 17.8237895,11.0922632 C17.7044211,11.3049474 17.5301053,11.4811579 17.3202632,11.6019474 C17.3197895,11.6024211 2.27889474,20.1680526 2.27889474,20.1680526 C2.04678947,20.3006842 1.78957895,20.3688947 1.52952632,20.3688947 Z" id="Shape" fill="#419239"></path>
                    <path d="M9.82563158,14.211 C9.75552632,14.211 9.68494737,14.2015263 9.61484211,14.1830526 C9.39836842,14.1247895 9.21221053,13.9760526 9.10373684,13.7761579 C9.03410526,13.6477895 8.99763158,13.5009474 9,13.3531579 L9,7.48231579 C8.99526316,7.02189474 9.35952632,6.63821053 9.81189474,6.63157895 C9.96678947,6.62968421 10.1155263,6.67089474 10.2467368,6.75236842 L15.255,9.74652632 C15.6140526,9.96584211 15.7362632,10.4272105 15.5363684,10.7990526 C15.4695789,10.9226842 15.3729474,11.025 15.2559474,11.0951053 C15.2559474,11.0951053 15.2554737,11.0951053 15.255,11.0955789 L10.2410526,14.0935263 C10.1150526,14.1707368 9.972,14.211 9.82563158,14.211 Z" id="Shape" fill-opacity="0.619310462" fill="#23E769"></path>
                </g>
            </g>
        </g>
    </g>
</svg>